HIERARCHY
ROOT Hips
{
	OFFSET 0.000000 97.420761 0.000000
	CHANNELS 6 Xposition Yposition Zposition Xrotation Yrotation Zrotation
	JOINT RightUpLeg
	{
		OFFSET -8.571318 0.002251 -0.000250
		CHANNELS 6 Xposition Yposition Zposition Xrotation Yrotation Zrotation
		JOINT RightLeg
		{
			OFFSET 0.000000 -44.326080 -0.000105
			CHANNELS 6 Xposition Yposition Zposition Xrotation Yrotation Zrotation
			JOINT RightFoot
			{
				OFFSET 0.000000 -43.324329 -0.000176
				CHANNELS 6 Xposition Yposition Zposition Xrotation Yrotation Zrotation
				JOINT RightToeBase
				{
					OFFSET 0.000000 -7.938133 18.050686
					CHANNELS 6 Xposition Yposition Zposition Xrotation Yrotation Zrotation
					End Site
					{
						OFFSET 0.000000 0.000000 19.719055
					}
				}
			}
		}
	}
	JOINT LeftUpLeg
	{
		OFFSET 8.571318 -0.000084 0.000009
		CHANNELS 6 Xposition Yposition Zposition Xrotation Yrotation Zrotation
		JOINT LeftLeg
		{
			OFFSET 0.000000 -44.326080 -0.000105
			CHANNELS 6 Xposition Yposition Zposition Xrotation Yrotation Zrotation
			JOINT LeftFoot
			{
				OFFSET 0.000000 -43.324329 -0.000176
				CHANNELS 6 Xposition Yposition Zposition Xrotation Yrotation Zrotation
				JOINT LeftToeBase
				{
					OFFSET 0.000000 -7.938133 18.050686
					CHANNELS 6 Xposition Yposition Zposition Xrotation Yrotation Zrotation
					End Site
					{
						OFFSET 0.000000 0.000000 19.719055
					}
				}
			}
		}
	}
	JOINT Spine
	{
		OFFSET 0.000000 10.422829 -1.158092
		CHANNELS 6 Xposition Yposition Zposition Xrotation Yrotation Zrotation
		JOINT Spine1
		{
			OFFSET 0.000000 11.587624 0.000000
			CHANNELS 3 Xrotation Yrotation Zrotation
			JOINT Spine2
			{
				OFFSET 0.000000 10.579559 -0.000443
				CHANNELS 6 Xposition Yposition Zposition Xrotation Yrotation Zrotation
				JOINT Spine3
				{
					OFFSET 0.000000 10.567749 -0.000444
					CHANNELS 6 Xposition Yposition Zposition Xrotation Yrotation Zrotation
					JOINT LeftShoulder
					{
						OFFSET 3.218383 8.290512 0.000000
						CHANNELS 6 Xposition Yposition Zposition Xrotation Yrotation Zrotation
						JOINT LeftArm
						{
							OFFSET 15.038529 0.000000 0.000000
							CHANNELS 3 Xrotation Yrotation Zrotation
							JOINT LeftForeArm
							{
								OFFSET 32.129166 0.000000 0.000000
								CHANNELS 3 Xrotation Yrotation Zrotation
								JOINT LeftHand
								{
									OFFSET 26.275406 0.000000 0.000000
									CHANNELS 3 Xrotation Yrotation Zrotation
									End Site
									{
										OFFSET 26.275406 0.000000 0.000000
									}
								}
							}
						}
					}
					JOINT RightShoulder
					{
						OFFSET -3.218383 8.290512 0.000000
						CHANNELS 6 Xposition Yposition Zposition Xrotation Yrotation Zrotation
						JOINT RightArm
						{
							OFFSET -15.038529 0.000000 0.000000
							CHANNELS 3 Xrotation Yrotation Zrotation
							JOINT RightForeArm
							{
								OFFSET -32.129166 0.000000 0.000000
								CHANNELS 3 Xrotation Yrotation Zrotation
								JOINT RightHand
								{
									OFFSET -26.275406 0.000000 0.000000
									CHANNELS 3 Xrotation Yrotation Zrotation
									End Site
									{
										OFFSET -26.275406 0.000000 0.000000
									}
								}
							}
						}
					}
					JOINT Neck
					{
						OFFSET 0.000000 14.789474 0.000000
						CHANNELS 6 Xposition Yposition Zposition Xrotation Yrotation Zrotation
						JOINT Head
						{
							OFFSET 0.000000 9.838806 0.000953
							CHANNELS 6 Xposition Yposition Zposition Xrotation Yrotation Zrotation
							End Site
							{
								OFFSET 0.000000 9.838806 0.000000
							}
						}
					}
				}
			}
		}
	}
}
MOTION
Frames: 4
Frame Time: 0.016667
-54.053368 17.550316 141.670242 -80.532145 29.701928 79.946934 -8.571311 0.002249 -0.000247 -65.721125 -1.223265 -6.562345 0.000007 -44.326080 -0.000096 90.768119 -0.437147 0.337031 -0.000019 -43.324333 -0.000180 5.005374 1.149083 11.954060 -0.000023 -7.938134 18.050688 -0.000002 -0.000001 0.000001 8.571332 -0.000082 0.000012 -82.516342 5.682005 1.187256 -0.000006 -44.326073 -0.000097 130.359843 0.501737 0.392012 -0.000017 -43.324337 -0.000174 -6.306551 -16.707688 -13.451981 0.000011 -7.938128 18.050686 -0.000001 0.000001 -0.000000 0.000010 10.422831 -1.158086 15.146783 -2.046128 -1.236928 0.909688 -0.801601 -0.701334 0.000008 10.579561 -0.000441 6.730128 -0.801536 -0.701413 0.000015 10.567743 -0.000447 10.885243 -0.644804 -0.471880 3.218396 8.290514 -0.000005 -7.272930 8.243708 -4.583743 18.928455 31.405302 -60.956016 46.836752 -52.492435 -4.297777 -6.047782 -32.551080 6.031984 -3.218381 8.290511 -0.000006 -0.509680 -2.096507 -3.354350 52.469428 -41.325271 66.938040 81.863526 37.562028 -17.348525 5.185786 55.338859 -57.824662 0.000013 14.789478 -0.000008 18.043592 -2.745966 1.063503 0.000007 9.838802 0.000935 -2.513182 -5.365251 1.032846 
-54.220280 17.677963 141.507904 -80.949435 29.456400 79.964747 -8.571337 0.002242 -0.000251 -65.611125 -1.326069 -6.883941 0.000023 -44.326080 -0.000099 91.257536 -0.484124 0.262844 -0.000009 -43.324333 -0.000171 5.184258 1.926565 11.511248 -0.000015 -7.938132 18.050686 0.000001 -0.000000 -0.000001 8.571312 -0.000089 0.000012 -82.332002 5.642993 0.909765 -0.000003 -44.326073 -0.000103 130.793096 0.778686 0.433438 -0.000013 -43.324329 -0.000175 -6.421577 -16.822496 -13.427289 0.000000 -7.938136 18.050682 -0.000000 -0.000002 -0.000000 -0.000016 10.422825 -1.158091 15.192047 -1.853873 -1.195026 0.929395 -0.720362 -0.668220 0.000001 10.579562 -0.000449 6.749830 -0.720295 -0.668294 -0.000016 10.567746 -0.000439 10.899852 -0.581899 -0.452462 3.218378 8.290514 -0.000003 -7.306295 8.334666 -4.588879 18.671376 32.683036 -60.068584 49.243154 -54.277502 -3.758373 -6.054962 -31.312674 5.830057 -3.218400 8.290507 0.000007 -0.281868 -2.172611 -3.190648 52.165969 -41.366108 66.879170 81.646708 37.750401 -16.766484 4.974279 55.039317 -57.679923 -0.000007 14.789468 0.000004 18.070229 -2.857407 1.087601 0.000015 9.838801 0.000962 -2.463997 -5.576446 1.041133 
-54.360329 17.765884 141.361374 -81.388042 29.228008 79.967192 -8.571333 0.002258 -0.000245 -65.549961 -1.445619 -7.178426 0.000004 -44.326080 -0.000107 91.855936 -0.418081 0.207459 -0.000019 -43.324333 -0.000174 5.360517 2.103905 11.295493 0.000004 -7.938133 18.050694 -0.000001 -0.000000 0.000001 8.571302 -0.000087 0.000011 -82.025367 5.529984 0.600663 -0.000010 -44.326069 -0.000104 130.778698 0.822787 0.419440 0.000014 -43.324329 -0.000177 -6.411663 -16.774282 -13.388189 -0.000007 -7.938128 18.050680 -0.000000 -0.000001 -0.000000 -0.000017 10.422832 -1.158086 15.204428 -1.648650 -1.164368 0.934543 -0.632665 -0.638888 0.000003 10.579561 -0.000443 6.754976 -0.632585 -0.638964 0.000006 10.567745 -0.000445 10.903559 -0.514423 -0.436278 3.218358 8.290514 0.000004 -7.311257 8.466397 -4.562056 18.442175 33.739161 -59.180686 51.171723 -55.717517 -3.594490 -6.015585 -30.438820 5.377377 -3.218402 8.290512 0.000001 -0.031399 -2.233706 -3.033834 51.976363 -41.356242 66.890529 81.351187 37.946393 -16.165506 4.793213 54.790186 -57.541646 -0.000031 14.789472 -0.000004 18.137385 -2.965087 1.111677 -0.000011 9.838805 0.000957 -2.339368 -5.780381 1.052417 
-54.481979 17.822906 141.231003 -81.796331 29.031914 79.957309 -8.571332 0.002252 -0.000250 -65.519682 -1.566468 -7.429607 0.000007 -44.326088 -0.000108 92.452081 -0.290423 0.154188 -0.000003 -43.324333 -0.000174 5.571908 1.934305 11.233222 -0.000036 -7.938129 18.050688 0.000001 0.000000 0.000001 8.571320 -0.000084 0.000010 -81.677444 5.385157 0.309187 0.000009 -44.326088 -0.000103 130.511569 0.761855 0.379178 -0.000026 -43.324333 -0.000170 -6.335563 -16.667644 -13.350674 0.000009 -7.938131 18.050671 -0.000001 -0.000000 -0.000002 -0.000009 10.422832 -1.158093 15.199830 -1.451448 -1.145862 0.932177 -0.547611 -0.615439 -0.000008 10.579546 -0.000438 6.752605 -0.547533 -0.615504 0.000004 10.567756 -0.000443 10.901644 -0.449333 -0.424292 3.218395 8.290498 -0.000001 -7.272334 8.609210 -4.535381 18.219695 34.494501 -58.397817 52.532276 -56.717300 -3.713398 -5.922289 -29.986774 4.851507 -3.218372 8.290490 -0.000010 0.210098 -2.272690 -2.883307 51.855875 -41.298691 66.946434 80.995279 38.115256 -15.579568 4.646353 54.598299 -57.421127 0.000017 14.789464 -0.000002 18.219717 -3.060672 1.134633 -0.000005 9.838811 0.000953 -2.186423 -5.961635 1.066447 
